<?xml version="1.0" encoding="UTF-8"?>
<svg width="120px" height="120px" viewBox="0 0 120 120" version="1.1" xmlns="http://www.w3.org/2000/svg" xmlns:xlink="http://www.w3.org/1999/xlink">
    <!-- Generator: Sketch 53.2 (72643) - https://sketchapp.com -->
    <title>performance</title>
    <desc>Created with Sketch.</desc>
    <defs>
        <rect id="path-1" x="60" y="52.1739844" width="36.5217188" height="49.5651563"></rect>
        <filter x="-4.1%" y="-3.0%" width="108.2%" height="106.1%" filterUnits="objectBoundingBox" id="filter-2">
            <feOffset dx="0" dy="0" in="SourceAlpha" result="shadowOffsetOuter1"></feOffset>
            <feGaussianBlur stdDeviation="0.5" in="shadowOffsetOuter1" result="shadowBlurOuter1"></feGaussianBlur>
            <feColorMatrix values="0 0 0 0 0   0 0 0 0 0   0 0 0 0 0  0 0 0 0.5 0" type="matrix" in="shadowBlurOuter1"></feColorMatrix>
        </filter>
    </defs>
    <g id="performance" stroke="none" stroke-width="1" fill="none" fill-rule="evenodd">
        <g id="performance-copy" fill-rule="nonzero">
            <circle id="Oval" fill="#E46633" cx="60" cy="60" r="60"></circle>
            <path d="M72.1478906,24.5046094 C66.7136719,19.0373438 59.1871875,15.6522656 50.8694531,15.6522656 C34.3007812,15.6522656 20.8694531,29.0835938 20.8694531,45.6522656 C20.8694531,53.9697656 24.2545312,61.4964844 29.7215625,66.9304688 L60,97.2086719 L60,101.739141 L76.1739844,117.782578 L76.1739844,117.794531 C97.9094531,111.724688 114.666094,93.7228125 118.938516,71.2947656 L72.1478906,24.5046094 Z" id="Path" fill="#D55A28"></path>
            <circle id="Oval" fill="#727177" cx="50.8694531" cy="45.6522656" r="30"></circle>
            <path d="M50.8694531,15.6522656 L50.8694531,75.6522656 C67.438125,75.6522656 80.8694531,62.2209375 80.8694531,45.6522656 C80.8694531,29.0835938 67.438125,15.6522656 50.8694531,15.6522656 Z" id="Path" fill="#898890" opacity="0.547898065"></path>
            <circle id="Oval" fill="#FFFFFF" cx="50.8694531" cy="45.6522656" r="25.8625781"></circle>
            <path d="M50.8694531,19.7901563 L50.8694531,71.514375 C65.1525,71.514375 76.7315625,59.9353125 76.7315625,45.6522656 C76.7315625,31.3692187 65.1527344,19.7901563 50.8694531,19.7901563 Z" id="Path" fill="#D8D7DA" opacity="0.251650856"></path>
            <polygon id="Path" fill="#000000" points="66.97875 33.8917969 62.5896094 29.5028906 49.5438281 42.5486719 37.42125 42.5486719 37.42125 48.755625 52.04625 48.755625"></polygon>
            <g id="Rectangle">
                <use fill="black" fill-opacity="1" filter="url(#filter-2)" xlink:href="#path-1"></use>
                <use fill="#FFFFFF" xlink:href="#path-1"></use>
            </g>
            <rect id="Rectangle" fill="#E1E3FA" opacity="0.247674851" x="78.2608594" y="52.1739844" width="18.2608594" height="49.5651563"></rect>
            <g id="Group" transform="translate(65.156250, 75.468750)" fill="#C6C5CA">
                <rect id="Rectangle" x="10.4960156" y="13.2269531" width="15.6522656" height="2.60859375"></rect>
                <circle id="Oval" cx="3.97429687" cy="14.53125" r="3.913125"></circle>
                <rect id="Rectangle" x="10.4960156" y="0.183515625" width="15.6522656" height="2.60859375"></rect>
            </g>
            <polygon id="Path" fill="#000000" points="67.8646875 80.8694531 64.3804688 77.7857812 66.0030469 75.9525 67.5907031 77.3575781 71.1560156 73.0434375 73.0434375 74.6032031"></polygon>
            <rect id="Rectangle" fill="#C6C5CA" x="75.6522656" y="62.6085938" width="15.6522656" height="2.60859375"></rect>
            <polygon id="Path" fill="#000000" points="67.8646875 67.8260156 64.3804688 64.7423437 66.0030469 62.9090625 67.5907031 64.3139063 71.1560156 60 73.0434375 61.5597656"></polygon>
        </g>
    </g>
</svg>