<?xml version="1.0" encoding="UTF-8"?>
<svg width="120px" height="120px" viewBox="0 0 120 120" version="1.1" xmlns="http://www.w3.org/2000/svg" xmlns:xlink="http://www.w3.org/1999/xlink">
    <!-- Generator: Sketch 53.2 (72643) - https://sketchapp.com -->
    <title>scorecard</title>
    <desc>Created with Sketch.</desc>
    <defs>
        <linearGradient x1="8.81867738%" y1="50%" x2="85.2065701%" y2="50%" id="linearGradient-1">
            <stop stop-color="#FFFFFF" offset="0.1%"></stop>
            <stop stop-color="#FFF4C8" offset="100%"></stop>
        </linearGradient>
        <linearGradient x1="-40.6448512%" y1="50%" x2="160.10537%" y2="50%" id="linearGradient-2">
            <stop stop-color="#FF0014" offset="0%"></stop>
            <stop stop-color="#B80002" offset="100%"></stop>
        </linearGradient>
        <linearGradient x1="-305.51087%" y1="50%" x2="157.532609%" y2="50%" id="linearGradient-3">
            <stop stop-color="#FF0014" offset="0%"></stop>
            <stop stop-color="#B80002" offset="100%"></stop>
        </linearGradient>
        <linearGradient x1="-26.2535817%" y1="50%" x2="228.044413%" y2="50%" id="linearGradient-4">
            <stop stop-color="#FFB835" offset="0%"></stop>
            <stop stop-color="#FF7700" offset="90.1%"></stop>
        </linearGradient>
        <linearGradient x1="-146.071809%" y1="50%" x2="106.327764%" y2="50%" id="linearGradient-5">
            <stop stop-color="#FFB835" offset="0%"></stop>
            <stop stop-color="#FF7700" offset="90.1%"></stop>
        </linearGradient>
        <linearGradient x1="-36.5586035%" y1="50%" x2="317.55611%" y2="50%" id="linearGradient-6">
            <stop stop-color="#FFB835" offset="0%"></stop>
            <stop stop-color="#FF7700" offset="90.1%"></stop>
        </linearGradient>
        <linearGradient x1="-414.902058%" y1="50%" x2="113.240764%" y2="50%" id="linearGradient-7">
            <stop stop-color="#FFB835" offset="0%"></stop>
            <stop stop-color="#FF7700" offset="90.1%"></stop>
        </linearGradient>
        <linearGradient x1="-189.072193%" y1="50%" x2="220.000384%" y2="50%" id="linearGradient-8">
            <stop stop-color="#FFB835" offset="0%"></stop>
            <stop stop-color="#FF7700" offset="90.1%"></stop>
        </linearGradient>
    </defs>
    <g id="scorecard" stroke="none" stroke-width="1" fill="none" fill-rule="evenodd">
        <g id="scorecard-preview-copy" fill-rule="nonzero">
            <circle id="Oval" fill="#AA009B" cx="60" cy="60" r="60"></circle>
            <path d="M30.0777768,95.5043906 L50.7450465,119.360444 C53.6684059,119.806225 56.6906715,120.004506 59.7129372,120.004506 C91.5211403,120.004506 117.533015,95.2812251 119.613797,63.9682563 L89.6880934,24.2298557 L30.0777768,95.5043906 Z" id="Path" fill="#930B86"></path>
            <rect id="Rectangle" fill="url(#linearGradient-1)" x="30.6382979" y="23.8297872" width="58.7234043" height="72.3404255"></rect>
            <g id="Group" transform="translate(43.976064, 61.258311)">
                <path d="M15.8447188,5.14847133 L13.899469,0.0182845745 L9.67133368,0.0182845745 L0.279255319,24.6980496 L5.20063767,24.6980496 L7.45341972,18.5454312 L16.0482965,18.5454312 L16.1451042,18.8058722 L18.3352969,24.6991356 L23.2579787,24.6991356 L15.8447188,5.14760247 L15.8447188,5.14847133 Z M7.93882979,15.3374335 L11.4111574,5.97573138 L14.7473404,15.3374335 L7.93882979,15.3374335 Z" id="Shape" fill="url(#linearGradient-2)"></path>
                <polygon id="Path" fill="url(#linearGradient-3)" points="27.9688205 9.99412062 27.9688205 6.82679521 24.5045837 6.82679521 24.5045837 9.99412062 21.5558511 9.99412062 21.5558511 13.0211719 24.5045837 13.0211719 24.5045837 16.1884973 27.9688205 16.1884973 27.9688205 13.0211719 30.9175532 13.0211719 30.9175532 9.99412062"></polygon>
            </g>
            <g id="Group" transform="translate(39.905253, 33.490691)">
                <rect id="Rectangle" fill="url(#linearGradient-4)" x="0.0947473404" y="0.551861702" width="17.8723404" height="4.25531915"></rect>
                <rect id="Rectangle" fill="url(#linearGradient-5)" x="22.2224069" y="0.551861702" width="17.8723404" height="4.25531915"></rect>
                <rect id="Rectangle" fill="url(#linearGradient-6)" x="0.0947473404" y="9.0625" width="12.7659574" height="4.25531915"></rect>
                <rect id="Rectangle" fill="url(#linearGradient-7)" x="31.584109" y="9.0625" width="7.65957447" height="4.25531915"></rect>
                <polygon id="Path" fill="url(#linearGradient-8)" points="16.2649601 9.0625 16.2649601 13.3178191 27.32794 13.3178191 27.32794 13.3169113 27.3287899 13.3169113 27.3287899 9.06363481 27.32794 9.06363481 27.32794 9.0625"></polygon>
                <rect id="Rectangle" fill="url(#linearGradient-4)" x="0.0947473404" y="18.4242021" width="17.8723404" height="4.25531915"></rect>
                <rect id="Rectangle" fill="url(#linearGradient-5)" x="22.2224069" y="18.4242021" width="17.8723404" height="4.25531915"></rect>
            </g>
        </g>
    </g>
</svg>