<?xml version="1.0" encoding="UTF-8"?>
<svg width="120px" height="120px" viewBox="0 0 120 120" version="1.1" xmlns="http://www.w3.org/2000/svg" xmlns:xlink="http://www.w3.org/1999/xlink">
    <!-- Generator: Sketch 53.2 (72643) - https://sketchapp.com -->
    <title>site-reliability</title>
    <desc>Created with Sketch.</desc>
    <defs>
        <filter x="-11.9%" y="-11.9%" width="124.8%" height="124.8%" filterUnits="objectBoundingBox" id="filter-1">
            <feOffset dx="0" dy="2" in="SourceAlpha" result="shadowOffsetOuter1"></feOffset>
            <feGaussianBlur stdDeviation="0.5" in="shadowOffsetOuter1" result="shadowBlurOuter1"></feGaussianBlur>
            <feColorMatrix values="0 0 0 0 0   0 0 0 0 0   0 0 0 0 0  0 0 0 0.411440122 0" type="matrix" in="shadowBlurOuter1" result="shadowMatrixOuter1"></feColorMatrix>
            <feMerge>
                <feMergeNode in="shadowMatrixOuter1"></feMergeNode>
                <feMergeNode in="SourceGraphic"></feMergeNode>
            </feMerge>
        </filter>
    </defs>
    <g id="site-reliability" stroke="none" stroke-width="1" fill="none" fill-rule="evenodd">
        <g id="site-reliability-copy" fill-rule="nonzero">
            <circle id="Oval" fill="#2692FF" cx="59.9992969" cy="59.9992969" r="59.9992969"></circle>
            <path d="M27.0945966,95.9385896 L50.7445778,119.360444 C53.6679372,119.806225 56.6902028,120.004506 59.7124684,120.004506 C91.5206715,120.004506 117.532547,95.2812251 119.613328,63.9682563 L92.1093179,24.0806088 L27.0945966,95.9385896 Z" id="Path" fill="#2583E1"></path>
            <rect id="Rectangle" fill="#F7F7F8" x="27.2340426" y="23.8297872" width="65.5319149" height="72.3404255"></rect>
            <g id="graph" transform="translate(29.787234, 41.702128)">
                <path d="M58.4042553,0 C56.8203989,0 55.5319149,1.32164484 55.5319149,2.94599018 C55.5319149,3.06910802 55.5401729,3.19026187 55.5545346,3.30945172 L44.9342952,8.75572831 C44.0571543,7.61121113 42.6965027,6.87397709 41.1702128,6.87397709 C38.5305319,6.87397709 36.3829787,9.07659574 36.3829787,11.7839607 C36.3829787,12.8594926 36.7227527,13.8546236 37.2968617,14.6644026 L31.8474335,20.761743 C31.8191888,20.7934124 31.7941755,20.8268003 31.7707181,20.8609247 C31.4230452,20.707365 31.0403059,20.6219313 30.6382979,20.6219313 C30.0935106,20.6219313 29.5836702,20.7783142 29.1492287,21.0495908 L22.8085372,15.7286416 C22.9185239,15.4166121 22.9787234,15.080401 22.9787234,14.7299509 C22.9787234,13.1056056 21.6902394,11.7839607 20.106383,11.7839607 C18.5225266,11.7839607 17.2340426,13.1056056 17.2340426,14.7299509 C17.2340426,15.5513912 17.563883,16.2950082 18.0943085,16.8298282 L13.6816755,26.5279051 C13.590359,26.5189444 13.4978457,26.5139116 13.4042553,26.5139116 C11.8203989,26.5139116 10.5319149,27.8355565 10.5319149,29.4599018 C10.5319149,29.619108 10.5447207,29.7752455 10.5685372,29.9278232 L4.78974734,33.1606792 C4.28086436,32.6917758 3.60861702,32.405892 2.87234043,32.405892 C1.28848404,32.405892 0,33.7275368 0,35.3518822 C0,36.9762275 1.28848404,38.2978723 2.87234043,38.2978723 C4.45619681,38.2978723 5.74468085,36.9762275 5.74468085,35.3518822 C5.74468085,35.1926759 5.731875,35.0365385 5.70805851,34.8839607 L11.4868484,31.6511047 C11.9957314,32.1200082 12.667859,32.4057692 13.4042553,32.4057692 C14.9881117,32.4057692 16.2765957,31.0841244 16.2765957,29.4597791 C16.2765957,28.6383388 15.9467553,27.8947218 15.4163298,27.3599018 L19.8289628,17.6618249 C19.9202793,17.6707856 20.0127926,17.6758183 20.1065027,17.6758183 C20.6512899,17.6758183 21.1611303,17.5194354 21.5955718,17.2481588 L27.9362633,22.569108 C27.8261569,22.8812602 27.7659574,23.2174714 27.7659574,23.5679214 C27.7659574,25.1922668 29.0544415,26.5139116 30.6382979,26.5139116 C32.2221543,26.5139116 33.5106383,25.1922668 33.5106383,23.5679214 C33.5106383,23.0648936 33.3867686,22.5909574 33.1691888,22.1763093 C33.2004255,22.1493044 33.2307048,22.1208265 33.2590691,22.0891571 L38.7076596,15.9927987 C39.4275399,16.4375205 40.2702128,16.6939444 41.1702128,16.6939444 C43.8098936,16.6939444 45.9574468,14.4913257 45.9574468,11.7839607 C45.9574468,11.3437807 45.8997606,10.9172259 45.7933644,10.5110475 L56.4122872,5.06538462 C56.9290691,5.57663666 57.6312367,5.89198036 58.4042553,5.89198036 C59.9881117,5.89198036 61.2765957,4.57033552 61.2765957,2.94599018 C61.2765957,1.32164484 59.9881117,0 58.4042553,0 Z M2.87234043,36.3338789 C2.34442819,36.3338789 1.91489362,35.8933306 1.91489362,35.3518822 C1.91489362,34.8104337 2.34442819,34.3698854 2.87234043,34.3698854 C3.40025266,34.3698854 3.82978723,34.8104337 3.82978723,35.3518822 C3.82978723,35.8933306 3.40025266,36.3338789 2.87234043,36.3338789 Z M13.4042553,30.4418985 C12.8763431,30.4418985 12.4468085,30.0013502 12.4468085,29.4599018 C12.4468085,28.9184534 12.8763431,28.4779051 13.4042553,28.4779051 C13.9321676,28.4779051 14.3617021,28.9184534 14.3617021,29.4599018 C14.3617021,30.0013502 13.9321676,30.4418985 13.4042553,30.4418985 Z M20.106383,15.7119476 C19.5784707,15.7119476 19.1489362,15.2713993 19.1489362,14.7299509 C19.1489362,14.1885025 19.5784707,13.7479542 20.106383,13.7479542 C20.6342952,13.7479542 21.0638298,14.1885025 21.0638298,14.7299509 C21.0638298,15.2713993 20.6342952,15.7119476 20.106383,15.7119476 Z M30.6382979,24.5499182 C30.1103856,24.5499182 29.6808511,24.1093699 29.6808511,23.5679214 C29.6808511,23.026473 30.1103856,22.5859247 30.6382979,22.5859247 C31.1662101,22.5859247 31.5957447,23.026473 31.5957447,23.5679214 C31.5957447,24.1093699 31.1662101,24.5499182 30.6382979,24.5499182 Z M41.1702128,14.7299509 C39.5864761,14.7299509 38.2978723,13.4083061 38.2978723,11.7839607 C38.2978723,10.1596154 39.5864761,8.83797054 41.1702128,8.83797054 C42.7539495,8.83797054 44.0425532,10.1596154 44.0425532,11.7839607 C44.0425532,13.4083061 42.7539495,14.7299509 41.1702128,14.7299509 Z M58.4042553,3.92798691 C57.8763431,3.92798691 57.4468085,3.48743863 57.4468085,2.94599018 C57.4468085,2.40454173 57.8763431,1.96399345 58.4042553,1.96399345 C58.9321676,1.96399345 59.3617021,2.40454173 59.3617021,2.94599018 C59.3617021,3.48743863 58.9321676,3.92798691 58.4042553,3.92798691 Z" id="Shape" fill="#002347"></path>
                <path d="M41.2765957,10.212766 C40.9398936,10.212766 40.6111702,10.3484043 40.3734043,10.5861702 C40.1356383,10.8239362 40,11.1526596 40,11.4893617 C40,11.8259043 40.1356383,12.1547872 40.3734043,12.3925532 C40.6111702,12.6301596 40.9398936,12.7659574 41.2765957,12.7659574 C41.6132979,12.7659574 41.9420213,12.6301596 42.1797872,12.3925532 C42.4175532,12.1547872 42.5531915,11.8259043 42.5531915,11.4893617 C42.5531915,11.1526596 42.4175532,10.8239362 42.1797872,10.5861702 C41.9420213,10.3484043 41.6132979,10.212766 41.2765957,10.212766 Z" id="Path" fill="#000000"></path>
            </g>
            <g id="research" filter="url(#filter-1)" transform="translate(43.404255, 37.446809)">
                <path d="M28.0851064,32.5398613 L32.5398614,28.0851064 L51.8433769,47.388622 C53.0734843,48.6187294 53.0734843,50.6132696 51.8433769,51.843377 C50.6132695,53.0734843 48.6191519,53.0734843 47.388622,51.843377 L28.0851064,32.5398613 Z" id="Path" fill="#A88E74"></path>
                <polygon id="Path" fill="#A8A8A8" points="28.9361702 32.7272727 33.5783365 28.0851064 37.4468085 31.9535783 32.8046421 36.5957447"></polygon>
                <path d="M38.2978723,20.4255319 C38.2978723,30.7662096 29.9148208,39.1489362 19.5742588,39.1489362 C9.23369673,39.1489362 0.85106383,30.7662096 0.85106383,20.4255319 C0.85106383,10.0848543 9.23369673,1.70212766 19.5742588,1.70212766 C29.9148208,1.70212766 38.2978723,10.0848543 38.2978723,20.4255319 Z" id="Path" fill="#EBEBEB"></path>
                <path d="M4.47376342,20.4255316 C3.89668917,20.4259287 3.42457633,20.000303 3.40915341,19.4658887 C3.39030317,18.7587624 3.4258616,18.0512392 3.51582859,17.3488775 C4.53202779,9.23181485 12.455554,3.41479837 21.2140601,4.35498641 C21.795847,4.43240901 22.2002703,4.93228087 22.1167295,5.4714597 C22.036616,5.99038953 21.5323721,6.36042976 20.969007,6.31437325 C13.3775021,5.49726721 6.50830398,10.5384697 5.62662688,17.5739984 L5.62662688,17.5747926 C5.55079754,18.1838501 5.52123696,18.7972753 5.53837354,19.4107003 C5.55379636,19.9550406 5.08982353,20.4084589 4.50246722,20.4227523 L4.47376342,20.4255316 Z" id="Path" fill="#F9F9F9"></path>
                <path d="M23.8297872,24.2553192 C23.8297872,25.4306916 22.8771678,26.3829787 21.7023417,26.3829787 C20.5270876,26.3829787 19.5744681,25.4306916 19.5744681,24.2553192 C19.5744681,23.0799467 20.5270876,22.1276596 21.7023417,22.1276596 C22.8771678,22.1276596 23.8297872,23.0799467 23.8297872,24.2553192 Z" id="Path" fill="#E84F4F"></path>
                <path d="M13.6170213,20.0002141 C13.6170213,21.1750401 12.6647341,22.1276596 11.4893617,22.1276596 C10.3139893,22.1276596 9.36170213,21.1750401 9.36170213,20.0002141 C9.36170213,18.8249599 10.3139893,17.8723404 11.4893617,17.8723404 C12.6647341,17.8723404 13.6170213,18.8249599 13.6170213,20.0002141 Z" id="Path" fill="#E84F4F"></path>
                <path d="M29.787234,16.5955306 C29.787234,17.7707848 28.8346146,18.7234043 27.6593605,18.7234043 C26.4845345,18.7234043 25.5319149,17.7707848 25.5319149,16.5955306 C25.5319149,15.4207046 26.4845345,14.4680851 27.6593605,14.4680851 C28.8346146,14.4680851 29.787234,15.4207046 29.787234,16.5955306 Z" id="Path" fill="#E84F4F"></path>
                <path d="M17.3603497,39.1056741 C18.1237321,39.1946282 18.8916858,39.2391053 19.6604706,39.2386896 C23.4225291,39.2395209 27.103138,38.1467153 30.255571,36.0937039 L32.7605626,38.6006308 L47.3670572,53.2069815 C48.9515849,54.8480605 51.5666997,54.8933689 53.207328,53.3084059 C54.8479561,51.7234428 54.8932522,49.1080252 53.3087244,47.4665306 C53.2754796,47.4324455 53.2418194,47.3983602 53.207328,47.3651063 L36.0958417,30.248919 C41.9652016,21.1435911 39.3434378,9.00301556 30.2406109,3.13204318 C21.1377839,-2.73851355 9.00054281,-0.116445171 3.13118294,8.98888261 C-2.73776139,18.0942104 -0.116413188,30.2347861 8.98641374,36.1057584 C11.5109367,37.7339515 14.3758026,38.7602494 17.3603497,39.1056741 Z M34.8703573,31.9440355 L36.4191469,33.4932506 L33.4990115,36.4141882 L31.9510531,34.8658045 C33.0236117,33.9966312 34.0018384,33.0173045 34.8703573,31.9440355 L34.8703573,31.9440355 Z M52.3521069,50.2860439 C52.3537691,50.8343173 52.136016,51.3601442 51.7470525,51.7467205 C50.9304785,52.5273554 49.6439068,52.5273554 48.8273326,51.7467205 L34.9547159,37.8702924 L37.8748512,34.9493548 L51.7470525,48.825783 C52.136016,49.2119437 52.3537691,49.7377706 52.3521069,50.2860439 L52.3521069,50.2860439 Z M2.18578546,17.5875045 C3.30364009,7.95510261 12.0166723,1.05284433 21.6464285,2.17142172 C31.2761847,3.28958336 38.1761317,12.0045938 37.0582771,21.6369956 C35.9404226,31.2693974 27.2273902,38.1716557 17.5976341,37.053494 C7.97328017,35.9253562 1.07831989,27.2169965 2.18578546,17.5875045 Z" id="Shape" fill="#727177"></path>
                <path d="M22.6697037,20.9008462 C22.4020247,20.7782712 22.1191223,20.6959644 21.8290309,20.6565811 C20.8682619,20.5459538 19.9117218,20.9039438 19.2359696,21.6274467 L15.5679635,19.8330712 C15.7523364,18.021438 14.4985159,16.3965437 12.7672712,16.2036095 C11.0364493,16.0106755 9.48365721,17.3227157 9.29886134,19.1339064 C9.22189838,19.8932525 9.39865963,20.6574662 9.79954375,21.2955646 L7.86405102,23.9267252 C7.52025476,24.415698 7.62005295,25.1038001 8.08775116,25.4635602 C8.54107173,25.8127 9.17665087,25.7259682 9.52932756,25.2666435 L11.4534027,22.6500857 C11.6538449,22.7182322 11.86063,22.7655807 12.0699525,22.7908037 C12.1917402,22.805849 12.3143735,22.8138142 12.436584,22.8138142 C13.2772568,22.8098316 14.0811397,22.453169 14.6685112,21.8243633 L18.3322886,23.6165261 C18.1665221,25.4029364 19.3966616,26.9999526 21.0999967,27.2105871 C21.2213615,27.2260749 21.3435719,27.2335976 21.4657825,27.2340401 C23.2025246,27.2362527 24.6123854,25.764909 24.6149226,23.9475232 C24.6157684,23.3970415 24.4842547,22.85541 24.2330678,22.3717473 L26.3178349,19.9627264 C27.8693583,20.6941945 29.6932125,19.9706916 30.3922226,18.3475674 C30.5512231,17.9776295 30.6425639,17.5798136 30.6607474,17.174475 L33.2664949,16.4345994 C33.8268025,16.275296 34.1574897,15.6708283 34.0056781,15.0849458 C33.8534436,14.498621 33.276221,14.1521362 32.7159133,14.3114396 L30.113126,15.0513152 C29.1367107,13.552536 27.1838801,13.1662253 25.75203,14.1884219 C24.4178635,15.1402596 23.9920297,16.9961437 24.7671571,18.4785501 L22.6697037,20.9008462 Z M12.2640753,21.0178715 C11.4589063,20.9192126 10.8841229,20.1664808 10.9798217,19.3364051 C11.0672502,18.5775831 11.6898828,18.0051173 12.4312528,18.0020722 C12.4885539,18.0020722 12.5452642,18.0051173 12.6019746,18.0112073 C13.4071438,18.1074304 13.98429,18.8583352 13.8909542,19.6884107 C13.7982092,20.5190955 13.0698352,21.1140946 12.2640753,21.0178715 Z M22.3765384,25.1199422 C21.7390796,25.6374788 20.8154151,25.5248385 20.3127808,24.8690894 C19.8101463,24.21334 19.9189519,23.2622906 20.5558192,22.7441452 C20.813641,22.5346951 21.1323704,22.4202282 21.4611524,22.4190106 C21.5191033,22.4196194 21.577054,22.4232725 21.6344134,22.4299701 C22.4398112,22.5292154 23.0145884,23.282992 22.9176096,24.1122683 C22.8714854,24.509858 22.6739797,24.8715247 22.3688511,25.1199422 L22.3765384,25.1199422 Z M26.0996105,16.5947509 C26.2753822,15.7789164 27.0580965,15.2644536 27.8478889,15.4452766 C28.6382709,15.6260996 29.1366837,16.4340194 28.961502,17.2498539 C28.7863202,18.0650796 28.003606,18.5801512 27.2132237,18.3987194 C26.8339583,18.3122652 26.5036493,18.0736032 26.2948468,17.7350927 C26.0860444,17.3965823 26.0158537,16.9862298 26.0996105,16.5947509 Z" id="Shape" fill="#000000"></path>
            </g>
        </g>
    </g>
</svg>